<mxfile host="app.diagrams.net" modified="2023-11-21T14:29:07.668Z" agent="Mozilla/5.0 (Windows NT 10.0; Win64; x64) AppleWebKit/537.36 (KHTML, like Gecko) Chrome/119.0.0.0 Safari/537.36" etag="tUO-Zga2FigvX0SWl5-z" version="22.1.3" type="device">
  <diagram name="Page-1" id="vYi75NxRThDeWnQXjP8c">
    <mxGraphModel dx="1050" dy="662" grid="1" gridSize="10" guides="1" tooltips="1" connect="1" arrows="1" fold="1" page="1" pageScale="1" pageWidth="827" pageHeight="1169" math="0" shadow="0">
      <root>
        <mxCell id="0" />
        <mxCell id="1" parent="0" />
        <mxCell id="A7sdZhtQ6k3SS8Ab4ciQ-6" style="edgeStyle=orthogonalEdgeStyle;rounded=0;orthogonalLoop=1;jettySize=auto;html=1;entryX=0;entryY=0.5;entryDx=0;entryDy=0;" edge="1" parent="1" source="A7sdZhtQ6k3SS8Ab4ciQ-1" target="A7sdZhtQ6k3SS8Ab4ciQ-5">
          <mxGeometry relative="1" as="geometry" />
        </mxCell>
        <mxCell id="A7sdZhtQ6k3SS8Ab4ciQ-1" value="Usager" style="shape=umlActor;verticalLabelPosition=bottom;verticalAlign=top;html=1;outlineConnect=0;" vertex="1" parent="1">
          <mxGeometry x="154" y="60" width="30" height="60" as="geometry" />
        </mxCell>
        <mxCell id="A7sdZhtQ6k3SS8Ab4ciQ-10" style="edgeStyle=orthogonalEdgeStyle;rounded=0;orthogonalLoop=1;jettySize=auto;html=1;entryX=1;entryY=0.5;entryDx=0;entryDy=0;" edge="1" parent="1" source="A7sdZhtQ6k3SS8Ab4ciQ-2" target="A7sdZhtQ6k3SS8Ab4ciQ-5">
          <mxGeometry relative="1" as="geometry" />
        </mxCell>
        <mxCell id="A7sdZhtQ6k3SS8Ab4ciQ-12" style="edgeStyle=orthogonalEdgeStyle;rounded=0;orthogonalLoop=1;jettySize=auto;html=1;entryX=0;entryY=0.5;entryDx=0;entryDy=0;" edge="1" parent="1" source="A7sdZhtQ6k3SS8Ab4ciQ-2" target="A7sdZhtQ6k3SS8Ab4ciQ-7">
          <mxGeometry relative="1" as="geometry" />
        </mxCell>
        <mxCell id="A7sdZhtQ6k3SS8Ab4ciQ-16" style="edgeStyle=orthogonalEdgeStyle;orthogonalLoop=1;jettySize=auto;html=1;rounded=0;" edge="1" parent="1" source="A7sdZhtQ6k3SS8Ab4ciQ-2" target="A7sdZhtQ6k3SS8Ab4ciQ-14">
          <mxGeometry relative="1" as="geometry">
            <Array as="points">
              <mxPoint x="420" y="240" />
              <mxPoint x="354" y="240" />
            </Array>
          </mxGeometry>
        </mxCell>
        <mxCell id="A7sdZhtQ6k3SS8Ab4ciQ-17" style="edgeStyle=orthogonalEdgeStyle;rounded=0;orthogonalLoop=1;jettySize=auto;html=1;" edge="1" parent="1" source="A7sdZhtQ6k3SS8Ab4ciQ-2" target="A7sdZhtQ6k3SS8Ab4ciQ-15">
          <mxGeometry relative="1" as="geometry">
            <Array as="points">
              <mxPoint x="440" y="240" />
              <mxPoint x="504" y="240" />
            </Array>
          </mxGeometry>
        </mxCell>
        <mxCell id="A7sdZhtQ6k3SS8Ab4ciQ-22" style="edgeStyle=orthogonalEdgeStyle;rounded=0;orthogonalLoop=1;jettySize=auto;html=1;entryX=0.5;entryY=0;entryDx=0;entryDy=0;" edge="1" parent="1" source="A7sdZhtQ6k3SS8Ab4ciQ-2" target="A7sdZhtQ6k3SS8Ab4ciQ-21">
          <mxGeometry relative="1" as="geometry" />
        </mxCell>
        <mxCell id="A7sdZhtQ6k3SS8Ab4ciQ-2" value="Employé" style="shape=umlActor;verticalLabelPosition=bottom;verticalAlign=top;html=1;outlineConnect=0;" vertex="1" parent="1">
          <mxGeometry x="414" y="60" width="30" height="60" as="geometry" />
        </mxCell>
        <mxCell id="A7sdZhtQ6k3SS8Ab4ciQ-13" style="edgeStyle=orthogonalEdgeStyle;rounded=0;orthogonalLoop=1;jettySize=auto;html=1;entryX=1;entryY=0.5;entryDx=0;entryDy=0;" edge="1" parent="1" source="A7sdZhtQ6k3SS8Ab4ciQ-4" target="A7sdZhtQ6k3SS8Ab4ciQ-7">
          <mxGeometry relative="1" as="geometry" />
        </mxCell>
        <mxCell id="A7sdZhtQ6k3SS8Ab4ciQ-4" value="Bénévole" style="shape=umlActor;verticalLabelPosition=bottom;verticalAlign=top;html=1;outlineConnect=0;" vertex="1" parent="1">
          <mxGeometry x="680" y="60" width="30" height="60" as="geometry" />
        </mxCell>
        <mxCell id="A7sdZhtQ6k3SS8Ab4ciQ-5" value="Consulte les documents" style="ellipse;whiteSpace=wrap;html=1;" vertex="1" parent="1">
          <mxGeometry x="240" y="160" width="120" height="80" as="geometry" />
        </mxCell>
        <mxCell id="A7sdZhtQ6k3SS8Ab4ciQ-19" style="edgeStyle=orthogonalEdgeStyle;rounded=0;orthogonalLoop=1;jettySize=auto;html=1;" edge="1" parent="1" source="A7sdZhtQ6k3SS8Ab4ciQ-7" target="A7sdZhtQ6k3SS8Ab4ciQ-18">
          <mxGeometry relative="1" as="geometry" />
        </mxCell>
        <mxCell id="A7sdZhtQ6k3SS8Ab4ciQ-7" value="Enregistre de nouveau emprunt" style="ellipse;whiteSpace=wrap;html=1;" vertex="1" parent="1">
          <mxGeometry x="500" y="160" width="120" height="80" as="geometry" />
        </mxCell>
        <mxCell id="A7sdZhtQ6k3SS8Ab4ciQ-14" value="Enregistre un nouveau document" style="ellipse;whiteSpace=wrap;html=1;" vertex="1" parent="1">
          <mxGeometry x="294" y="290" width="120" height="80" as="geometry" />
        </mxCell>
        <mxCell id="A7sdZhtQ6k3SS8Ab4ciQ-15" value="Enregistre un nouveau lecteur" style="ellipse;whiteSpace=wrap;html=1;" vertex="1" parent="1">
          <mxGeometry x="444" y="290" width="120" height="80" as="geometry" />
        </mxCell>
        <mxCell id="A7sdZhtQ6k3SS8Ab4ciQ-18" value="Génère fiche de prêt" style="ellipse;whiteSpace=wrap;html=1;" vertex="1" parent="1">
          <mxGeometry x="590" y="290" width="120" height="80" as="geometry" />
        </mxCell>
        <mxCell id="A7sdZhtQ6k3SS8Ab4ciQ-21" value="Consulte l&#39;état d&#39;un utilisateur" style="ellipse;whiteSpace=wrap;html=1;" vertex="1" parent="1">
          <mxGeometry x="369" y="380" width="120" height="80" as="geometry" />
        </mxCell>
        <mxCell id="A7sdZhtQ6k3SS8Ab4ciQ-23" value="&quot;Utilise&quot;" style="text;strokeColor=none;align=center;fillColor=none;html=1;verticalAlign=middle;whiteSpace=wrap;rounded=0;" vertex="1" parent="1">
          <mxGeometry x="580" y="240" width="60" height="30" as="geometry" />
        </mxCell>
      </root>
    </mxGraphModel>
  </diagram>
</mxfile>
